<svg xmlns="http://www.w3.org/2000/svg" width="1024" height="1024" viewBox="0 0 1024 1024">
  <rect width="1024" height="1024" fill="#0a0b14"/>
  <!-- Grille dorée -->
  <g stroke="#d4a857" stroke-opacity="0.12" stroke-width="1">
    <line x1="64"  y1="0"   x2="64"  y2="1024"/>
    <line x1="128" y1="0"   x2="128" y2="1024"/>
    <line x1="192" y1="0"   x2="192" y2="1024"/>
    <line x1="256" y1="0"   x2="256" y2="1024"/>
    <line x1="320" y1="0"   x2="320" y2="1024"/>
    <line x1="384" y1="0"   x2="384" y2="1024"/>
    <line x1="448" y1="0"   x2="448" y2="1024"/>
    <line x1="512" y1="0"   x2="512" y2="1024"/>
    <line x1="576" y1="0"   x2="576" y2="1024"/>
    <line x1="640" y1="0"   x2="640" y2="1024"/>
    <line x1="704" y1="0"   x2="704" y2="1024"/>
    <line x1="768" y1="0"   x2="768" y2="1024"/>
    <line x1="832" y1="0"   x2="832" y2="1024"/>
    <line x1="896" y1="0"   x2="896" y2="1024"/>
    <line x1="960" y1="0"   x2="960" y2="1024"/>
    <line x1="0"   y1="64"  x2="1024" y2="64"/>
    <line x1="0"   y1="128" x2="1024" y2="128"/>
    <line x1="0"   y1="192" x2="1024" y2="192"/>
    <line x1="0"   y1="256" x2="1024" y2="256"/>
    <line x1="0"   y1="320" x2="1024" y2="320"/>
    <line x1="0"   y1="384" x2="1024" y2="384"/>
    <line x1="0"   y1="448" x2="1024" y2="448"/>
    <line x1="0"   y1="512" x2="1024" y2="512"/>
    <line x1="0"   y1="576" x2="1024" y2="576"/>
    <line x1="0"   y1="640" x2="1024" y2="640"/>
    <line x1="0"   y1="704" x2="1024" y2="704"/>
    <line x1="0"   y1="768" x2="1024" y2="768"/>
    <line x1="0"   y1="832" x2="1024" y2="832"/>
    <line x1="0"   y1="896" x2="1024" y2="896"/>
    <line x1="0"   y1="960" x2="1024" y2="960"/>
  </g>
  <!-- Zones fictives colorées -->
  <ellipse cx="400" cy="350" rx="280" ry="200" fill="#4ade80" fill-opacity="0.04"/>
  <ellipse cx="700" cy="650" rx="200" ry="160" fill="#818cf8" fill-opacity="0.04"/>
  <!-- Bordure dorée -->
  <rect x="2" y="2" width="1020" height="1020" fill="none" stroke="#d4a857" stroke-opacity="0.25" stroke-width="2" rx="4"/>
  <!-- Texte central -->
  <text x="512" y="490" text-anchor="middle" font-family="Georgia, serif" font-size="28" fill="#d4a857" fill-opacity="0.6" font-weight="bold">ACTE I — FAERÛN</text>
  <text x="512" y="530" text-anchor="middle" font-family="Georgia, serif" font-size="16" fill="#9a8a72" fill-opacity="0.8">Fond de carte Acte 1</text>
  <text x="512" y="558" text-anchor="middle" font-family="Georgia, serif" font-size="14" fill="#6b5f50">Placez acte1-bg3.webp ici</text>
  <!-- Symbole carte -->
  <polygon points="512,380 540,420 512,410 484,420" fill="#d4a857" fill-opacity="0.3"/>
  <polygon points="512,440 540,400 512,410 484,400" fill="#d4a857" fill-opacity="0.15"/>
</svg>
